<svg width="576" height="512" viewBox="0 0 576 512" fill="none" xmlns="http://www.w3.org/2000/svg">
<path d="M305.2 35.8276C293.7 30.6396 280.18 32.7056 270.76 41.0806L135.8 160.978H52C25.49 160.978 4 182.468 4 208.078V303.178C4 329.688 25.49 350.278 52 350.278H135.84L270.74 470.178C276.724 475.49 284.32 478.272 292 478.272C296.438 478.272 300.972 477.334 305.17 475.428C316.67 470.272 323.99 458.868 323.99 446.268V64.9776C323.1 52.3876 316.7 40.9776 305.2 35.8276ZM517.9 256.078L564.93 209.048C574.305 199.673 574.305 184.488 564.93 175.108C555.555 165.728 540.37 165.733 530.99 175.108L484 223.078L436.1 175.978C426.725 166.603 411.54 166.603 402.16 175.978C392.78 185.353 392.785 200.538 402.16 209.918L449.19 256.948L402.16 303.978C392.785 313.353 392.785 328.538 402.16 337.918C411.533 347.291 426.72 347.299 436.1 337.918L484 290.878L531.03 337.908C540.403 347.281 555.59 347.289 564.97 337.908C574.345 328.533 574.345 313.348 564.97 303.968L517.9 256.078Z" fill="#FFFCFC"/>
</svg>
