<svg width="512" height="512" viewBox="0 0 512 512" fill="none" xmlns="http://www.w3.org/2000/svg">
<path d="M444.6 181.885C434.32 173.541 419.19 175.01 410.85 185.291C402.444 195.541 403.944 210.661 414.225 219.071C425.5 228.385 432 241.785 432 255.985C432 270.175 425.5 283.605 414.19 292.855C403.91 301.261 402.41 316.385 410.815 326.635C415.534 332.447 422.435 335.447 429.375 335.447C434.719 335.447 440.125 333.666 444.565 330.041C467.1 311.585 480 284.685 480 255.985C480 227.285 467.1 200.385 444.6 181.885ZM333.2 34.8253C321.7 29.6383 308.19 31.7093 298.77 40.0843L163.8 159.985H80C53.49 159.985 32 181.475 32 207.085V302.185C32 328.695 53.49 349.285 80 349.285H163.84L298.74 469.185C304.7 477.185 312.3 479.985 320 479.985C324.438 479.985 328.959 479.054 333.16 477.148C344.7 471.985 352 460.585 352 447.985V63.9853C352 51.3953 344.7 39.0853 333.2 34.8253Z" fill="#FFFCFC"/>
</svg>
