<svg width="160" height="160" viewBox="0 0 160 160" fill="none" xmlns="http://www.w3.org/2000/svg">
<path fill-rule="evenodd" clip-rule="evenodd" d="M84.1331 105.106C79.3363 103.577 74.4975 103.616 68.964 105.333C63.6893 106.97 58.0863 104.021 56.4493 98.7466C54.8124 93.472 57.7613 87.869 63.036 86.232C72.0025 83.4493 81.0584 83.1335 90.209 86.0513C99.1789 88.9116 107.502 94.6424 115.571 102.712C116.195 103.336 116.791 103.932 117.36 104.503C123.218 110.371 126.29 113.449 129.284 115.251C131.426 116.542 133.571 117.223 138.595 116.248C144.016 115.196 149.264 118.738 150.317 124.16C151.369 129.581 147.827 134.83 142.406 135.882C133.429 137.624 126.074 136.665 118.966 132.384C113.708 129.218 108.718 124.191 103.534 118.969C102.836 118.266 102.135 117.56 101.429 116.854C94.7876 110.212 89.1105 106.693 84.1331 105.106Z" fill="#fffcfc"/>
<path fill-rule="evenodd" clip-rule="evenodd" d="M67 43C46.5655 43 30 59.5655 30 80C30 100.435 46.5655 117 67 117C87.4345 117 104 100.435 104 80C104 59.5655 87.4345 43 67 43ZM10 80C10 48.5198 35.5198 23 67 23C98.4802 23 124 48.5198 124 80C124 111.48 98.4802 137 67 137C35.5198 137 10 111.48 10 80Z" fill="#fffcfc"/>
</svg>
